<svg width="32" height="32" viewBox="0 0 32 32" fill="none" xmlns="http://www.w3.org/2000/svg">
<path d="M22.24 27.7734C22.2266 27.7734 22.2 27.7734 22.1866 27.7734H7.39997C3.47997 27.4934 1.71997 24.48 1.71997 21.7867C1.71997 19.3867 3.11997 16.72 6.1733 15.9867C5.31997 12.6534 6.03997 9.52002 8.2133 7.25336C10.68 4.66669 14.64 3.64002 18.04 4.69336C21.16 5.65336 23.36 8.22669 24.16 11.8C26.8933 12.4134 29.0666 14.48 29.9466 17.3334C30.8933 20.44 30.04 23.6267 27.7066 25.6667C26.2133 27.0134 24.2666 27.7734 22.24 27.7734ZM7.42664 17.8C7.4133 17.8 7.4133 17.8 7.39997 17.8C4.86664 17.9867 3.70664 19.9334 3.70664 21.7867C3.70664 23.64 4.86664 25.5867 7.4533 25.7734H22.1733C23.72 25.7467 25.2 25.2134 26.3466 24.1734C28.4266 22.3467 28.5733 19.7467 28.0133 17.92C27.4533 16.08 25.8933 14 23.1733 13.6534C22.7333 13.6 22.3866 13.2667 22.3066 12.8267C21.7733 9.62669 20.04 7.41336 17.44 6.61336C14.7333 5.78669 11.6133 6.60002 9.6533 8.64002C7.87997 10.4934 7.3733 13.0534 8.19997 15.8667C8.87997 15.96 9.5333 16.16 10.1333 16.4667C10.6266 16.72 10.8266 17.32 10.5733 17.8134C10.32 18.3067 9.71997 18.5067 9.22664 18.2534C8.67997 17.9734 8.07997 17.8267 7.47997 17.8267C7.46664 17.8 7.4533 17.8 7.42664 17.8Z" fill="#353535"/>
<path d="M21.1334 14.2266C20.76 14.2266 20.4134 14.0266 20.24 13.6666C19.9867 13.1732 20.2 12.5732 20.6934 12.3199C21.52 11.9066 22.44 11.6799 23.3467 11.6666C23.88 11.6532 24.36 12.0932 24.36 12.6532C24.3734 13.1999 23.9334 13.6666 23.3734 13.6666C22.76 13.6799 22.1334 13.8266 21.5734 14.1066C21.4267 14.1866 21.28 14.2266 21.1334 14.2266Z" fill="#353535"/>
</svg>
