<svg width="32" height="32" viewBox="0 0 32 32" fill="none" xmlns="http://www.w3.org/2000/svg">
<path d="M16 30.3333C8.09329 30.3333 1.66663 23.9066 1.66663 16C1.66663 8.09329 8.09329 1.66663 16 1.66663C23.9066 1.66663 30.3333 8.09329 30.3333 16C30.3333 16.5466 29.88 17 29.3333 17C28.7866 17 28.3333 16.5466 28.3333 16C28.3333 9.19996 22.8 3.66663 16 3.66663C9.19996 3.66663 3.66663 9.19996 3.66663 16C3.66663 22.8 9.19996 28.3333 16 28.3333C16.5466 28.3333 17 28.7866 17 29.3333C17 29.88 16.5466 30.3333 16 30.3333Z" fill="#353535"/>
<path d="M12.0003 29H10.667C10.1203 29 9.66698 28.5467 9.66698 28C9.66698 27.4533 10.0936 27.0133 10.6403 27C8.54698 19.8533 8.54698 12.1467 10.6403 5C10.107 4.98667 9.66698 4.54667 9.66698 4C9.66698 3.45333 10.1203 3 10.667 3H12.0003C12.3203 3 12.627 3.16 12.8137 3.41333C13.0003 3.68 13.0537 4.01332 12.947 4.31999C10.4403 11.8533 10.4403 20.16 12.947 27.6934C13.0537 28 13.0003 28.3334 12.8137 28.6C12.627 28.8667 12.3203 29 12.0003 29Z" fill="#353535"/>
<path d="M21.9466 17.0001C21.3999 17.0001 20.9466 16.5467 20.9466 16.0001C20.9466 12.0267 20.3066 8.09339 19.0533 4.32006C18.8799 3.80006 19.1599 3.22671 19.6799 3.05338C20.1999 2.88004 20.7733 3.16009 20.9466 3.68009C22.2666 7.65342 22.9466 11.8001 22.9466 16.0001C22.9466 16.5467 22.4933 17.0001 21.9466 17.0001Z" fill="#353535"/>
<path d="M16 22.9466C12.2667 22.9466 8.57333 22.4133 5 21.36C4.98667 21.8933 4.54667 22.3333 4 22.3333C3.45333 22.3333 3 21.8799 3 21.3333V19.9999C3 19.6799 3.16 19.3733 3.41333 19.1866C3.68 19 4.01334 18.9466 4.32001 19.0533C8.09334 20.3066 12.0267 20.9466 16 20.9466C16.5467 20.9466 17 21.4 17 21.9466C17 22.4933 16.5467 22.9466 16 22.9466Z" fill="#353535"/>
<path d="M28.0002 13.0001C27.8935 13.0001 27.7869 12.9867 27.6802 12.9467C20.1469 10.4401 11.8402 10.4401 4.30686 12.9467C3.78686 13.1201 3.21353 12.84 3.0402 12.32C2.86687 11.8 3.14687 11.2267 3.66687 11.0534C11.6135 8.40002 20.3602 8.40002 28.2935 11.0534C28.8135 11.2267 29.0935 11.8 28.9202 12.32C28.8135 12.7334 28.4135 13.0001 28.0002 13.0001Z" fill="#353535"/>
<path d="M24.2667 29.5334C21.36 29.5334 19 27.1733 19 24.2667C19 21.36 21.36 19 24.2667 19C27.1733 19 29.5333 21.36 29.5333 24.2667C29.5333 27.1733 27.1733 29.5334 24.2667 29.5334ZM24.2667 21C22.4667 21 21 22.4667 21 24.2667C21 26.0667 22.4667 27.5334 24.2667 27.5334C26.0667 27.5334 27.5333 26.0667 27.5333 24.2667C27.5333 22.4667 26.0667 21 24.2667 21Z" fill="#353535"/>
<path d="M29.3333 30.3333C29.08 30.3333 28.8266 30.24 28.6266 30.04L27.2933 28.7067C26.9066 28.32 26.9066 27.68 27.2933 27.2933C27.68 26.9066 28.32 26.9066 28.7066 27.2933L30.04 28.6266C30.4266 29.0133 30.4266 29.6534 30.04 30.04C29.84 30.24 29.5866 30.3333 29.3333 30.3333Z" fill="#353535"/>
</svg>
