<svg width="32" height="32" viewBox="0 0 32 32" fill="none" xmlns="http://www.w3.org/2000/svg">
<path d="M16 21C13.24 21 11 18.76 11 16C11 13.24 13.24 11 16 11C18.76 11 21 13.24 21 16C21 18.76 18.76 21 16 21ZM16 13C14.3467 13 13 14.3467 13 16C13 17.6533 14.3467 19 16 19C17.6533 19 19 17.6533 19 16C19 14.3467 17.6533 13 16 13Z" fill="#353535"/>
<path d="M20.28 29.5866C20 29.5866 19.72 29.5466 19.44 29.48C18.6133 29.2533 17.92 28.7333 17.48 28L17.32 27.7333C16.5333 26.3733 15.4533 26.3733 14.6666 27.7333L14.52 27.9866C14.08 28.7333 13.3866 29.2666 12.56 29.48C11.72 29.7066 10.8533 29.5866 10.12 29.1466L7.82663 27.8266C7.01329 27.36 6.42663 26.6 6.17329 25.68C5.93329 24.76 6.05329 23.8133 6.51996 23C6.90663 22.32 7.01329 21.7066 6.78663 21.32C6.55996 20.9333 5.98663 20.7066 5.19996 20.7066C3.25329 20.7066 1.66663 19.12 1.66663 17.1733V14.8266C1.66663 12.88 3.25329 11.2933 5.19996 11.2933C5.98663 11.2933 6.55996 11.0666 6.78663 10.68C7.01329 10.2933 6.91996 9.67998 6.51996 8.99998C6.05329 8.18664 5.93329 7.22664 6.17329 6.31997C6.41329 5.39997 6.99996 4.63998 7.82663 4.17331L10.1333 2.85331C11.64 1.95998 13.6266 2.47997 14.5333 4.01331L14.6933 4.27997C15.48 5.63998 16.56 5.63998 17.3466 4.27997L17.4933 4.02664C18.4 2.47997 20.3866 1.95998 21.9066 2.86664L24.2 4.18664C25.0133 4.65331 25.6 5.41331 25.8533 6.33331C26.0933 7.25331 25.9733 8.19998 25.5066 9.01331C25.12 9.69331 25.0133 10.3066 25.24 10.6933C25.4666 11.08 26.04 11.3066 26.8266 11.3066C28.7733 11.3066 30.36 12.8933 30.36 14.84V17.1866C30.36 19.1333 28.7733 20.72 26.8266 20.72C26.04 20.72 25.4666 20.9466 25.24 21.3333C25.0133 21.72 25.1066 22.3333 25.5066 23.0133C25.9733 23.8266 26.1066 24.7866 25.8533 25.6933C25.6133 26.6133 25.0266 27.3733 24.2 27.84L21.8933 29.16C21.3866 29.44 20.84 29.5866 20.28 29.5866ZM16 24.6533C17.1866 24.6533 18.2933 25.4 19.0533 26.72L19.2 26.9733C19.36 27.2533 19.6266 27.4533 19.9466 27.5333C20.2666 27.6133 20.5866 27.5733 20.8533 27.4133L23.16 26.08C23.5066 25.88 23.7733 25.5466 23.88 25.1466C23.9866 24.7466 23.9333 24.3333 23.7333 23.9866C22.9733 22.68 22.88 21.3333 23.4666 20.3066C24.0533 19.28 25.2666 18.6933 26.7866 18.6933C27.64 18.6933 28.32 18.0133 28.32 17.16V14.8133C28.32 13.9733 27.64 13.28 26.7866 13.28C25.2666 13.28 24.0533 12.6933 23.4666 11.6666C22.88 10.64 22.9733 9.29331 23.7333 7.98664C23.9333 7.63998 23.9866 7.22664 23.88 6.82664C23.7733 6.42664 23.52 6.10664 23.1733 5.89331L20.8666 4.57331C20.2933 4.22664 19.5333 4.42664 19.1866 5.01331L19.04 5.26664C18.28 6.58664 17.1733 7.33331 15.9866 7.33331C14.8 7.33331 13.6933 6.58664 12.9333 5.26664L12.7866 4.99997C12.4533 4.43997 11.7066 4.23998 11.1333 4.57331L8.82663 5.90664C8.47996 6.10664 8.21329 6.43998 8.10663 6.83998C7.99996 7.23998 8.05329 7.65331 8.25329 7.99998C9.01329 9.30664 9.10663 10.6533 8.51996 11.68C7.93329 12.7066 6.71996 13.2933 5.19996 13.2933C4.34663 13.2933 3.66663 13.9733 3.66663 14.8266V17.1733C3.66663 18.0133 4.34663 18.7066 5.19996 18.7066C6.71996 18.7066 7.93329 19.2933 8.51996 20.32C9.10663 21.3466 9.01329 22.6933 8.25329 24C8.05329 24.3466 7.99996 24.76 8.10663 25.16C8.21329 25.56 8.46663 25.88 8.81329 26.0933L11.12 27.4133C11.4 27.5866 11.7333 27.6266 12.04 27.5466C12.36 27.4666 12.6266 27.2533 12.8 26.9733L12.9466 26.72C13.7066 25.4133 14.8133 24.6533 16 24.6533Z" fill="#353535"/>
</svg>
